<svg xmlns="http://www.w3.org/2000/svg" viewBox="0 0 1920 1080">
  <defs>
    <linearGradient id="sky" x1="0" y1="0" x2="1" y2="1">
      <stop offset="0%" stop-color="#e5f4ff"/>
      <stop offset="44%" stop-color="#f7efe1"/>
      <stop offset="100%" stop-color="#ffd7c2"/>
    </linearGradient>
    <radialGradient id="sunGlow" cx="74%" cy="18%" r="34%">
      <stop offset="0%" stop-color="#fff8dc" stop-opacity="0.96"/>
      <stop offset="48%" stop-color="#ffe8b4" stop-opacity="0.34"/>
      <stop offset="100%" stop-color="#ffe8b4" stop-opacity="0"/>
    </radialGradient>
    <linearGradient id="ridgeFar" x1="0" y1="0" x2="1" y2="1">
      <stop offset="0%" stop-color="#dceafa"/>
      <stop offset="100%" stop-color="#bad6f2"/>
    </linearGradient>
    <linearGradient id="ridgeMid" x1="0" y1="0" x2="1" y2="1">
      <stop offset="0%" stop-color="#91caff"/>
      <stop offset="100%" stop-color="#4f9cf0"/>
    </linearGradient>
    <linearGradient id="ridgeNear" x1="0" y1="0" x2="1" y2="1">
      <stop offset="0%" stop-color="#5aa6f6"/>
      <stop offset="100%" stop-color="#2878d4"/>
    </linearGradient>
  </defs>
  <rect width="1920" height="1080" fill="url(#sky)"/>
  <rect width="1920" height="1080" fill="url(#sunGlow)"/>
  <circle cx="1428" cy="204" r="86" fill="#fff7d8" opacity="0.96"/>
  <path d="M0 738C155 696 332 695 510 748C748 819 948 908 1182 914C1424 920 1649 787 1920 696V1080H0Z" fill="url(#ridgeFar)" opacity="0.86"/>
  <path d="M0 798C190 743 421 752 666 820C899 884 1116 962 1378 952C1602 944 1765 843 1920 780V1080H0Z" fill="url(#ridgeMid)" opacity="0.9"/>
  <path d="M0 872C232 786 488 789 742 864C1015 944 1204 1018 1488 1002C1665 992 1812 934 1920 884V1080H0Z" fill="url(#ridgeNear)"/>
  <path d="M0 918C238 860 451 862 692 934C971 1016 1215 1036 1470 1018C1650 1005 1785 964 1920 922V1080H0Z" fill="#1f6fc7" opacity="0.2"/>
</svg>
