<svg xmlns="http://www.w3.org/2000/svg" viewBox="0 0 1920 1080">
  <defs>
    <linearGradient id="bg" x1="0" y1="0" x2="1" y2="1">
      <stop offset="0%" stop-color="#cbe9ff"/>
      <stop offset="45%" stop-color="#90ccff"/>
      <stop offset="100%" stop-color="#dcecff"/>
    </linearGradient>
    <radialGradient id="glowA" cx="76%" cy="16%" r="30%">
      <stop offset="0%" stop-color="#ffffff" stop-opacity="0.86"/>
      <stop offset="55%" stop-color="#ffffff" stop-opacity="0.22"/>
      <stop offset="100%" stop-color="#ffffff" stop-opacity="0"/>
    </radialGradient>
    <radialGradient id="glowB" cx="20%" cy="22%" r="24%">
      <stop offset="0%" stop-color="#ffffff" stop-opacity="0.28"/>
      <stop offset="100%" stop-color="#ffffff" stop-opacity="0"/>
    </radialGradient>
    <linearGradient id="ridgeFar" x1="0" y1="0" x2="1" y2="1">
      <stop offset="0%" stop-color="#d7ebff"/>
      <stop offset="100%" stop-color="#9bcfff"/>
    </linearGradient>
    <linearGradient id="ridgeNear" x1="0" y1="0" x2="1" y2="1">
      <stop offset="0%" stop-color="#72b8ff"/>
      <stop offset="100%" stop-color="#3d8eee"/>
    </linearGradient>
  </defs>
  <rect width="1920" height="1080" fill="url(#bg)"/>
  <rect width="1920" height="1080" fill="url(#glowA)"/>
  <rect width="1920" height="1080" fill="url(#glowB)"/>
  <circle cx="1440" cy="180" r="82" fill="#ffffff" opacity="0.78"/>
  <path d="M0 760C166 696 350 672 552 704C762 737 938 836 1144 860C1396 889 1634 802 1920 704V1080H0Z" fill="url(#ridgeFar)" opacity="0.9"/>
  <path d="M0 830C210 772 455 772 712 838C963 902 1218 992 1484 982C1663 975 1795 930 1920 882V1080H0Z" fill="#84c4ff" opacity="0.72"/>
  <path d="M0 888C230 802 474 800 732 870C996 942 1225 1028 1494 1002C1682 984 1812 934 1920 896V1080H0Z" fill="url(#ridgeNear)"/>
  <path d="M0 942C232 874 485 884 718 958C981 1041 1225 1038 1488 1018C1687 1002 1804 970 1920 934V1080H0Z" fill="#2f7fdc" opacity="0.22"/>
</svg>
